<?xml version="1.0" standalone="no"?>
<svg xmlns:xlink="http://www.w3.org/1999/xlink" id="wave" style="transform:rotate(0deg); transition: 0.3s" viewBox="0 0 1440 490" version="1.1" xmlns="http://www.w3.org/2000/svg"><defs><linearGradient id="sw-gradient-0" x1="0" x2="0" y1="1" y2="0"><stop stop-color="rgba(237.213, 236.287, 233.781, 1)" offset="0%"/><stop stop-color="rgba(237.213, 237.213, 237.213, 1)" offset="100%"/></linearGradient></defs><path style="transform:translate(0, 0px); opacity:1" fill="url(#sw-gradient-0)" d="M0,294L30,294C60,294,120,294,180,285.8C240,278,300,261,360,245C420,229,480,212,540,236.8C600,261,660,327,720,326.7C780,327,840,261,900,212.3C960,163,1020,131,1080,98C1140,65,1200,33,1260,57.2C1320,82,1380,163,1440,187.8C1500,212,1560,180,1620,171.5C1680,163,1740,180,1800,171.5C1860,163,1920,131,1980,106.2C2040,82,2100,65,2160,81.7C2220,98,2280,147,2340,212.3C2400,278,2460,359,2520,392C2580,425,2640,408,2700,375.7C2760,343,2820,294,2880,277.7C2940,261,3000,278,3060,310.3C3120,343,3180,392,3240,392C3300,392,3360,343,3420,302.2C3480,261,3540,229,3600,228.7C3660,229,3720,261,3780,294C3840,327,3900,359,3960,343C4020,327,4080,261,4140,269.5C4200,278,4260,359,4290,400.2L4320,441L4320,490L4290,490C4260,490,4200,490,4140,490C4080,490,4020,490,3960,490C3900,490,3840,490,3780,490C3720,490,3660,490,3600,490C3540,490,3480,490,3420,490C3360,490,3300,490,3240,490C3180,490,3120,490,3060,490C3000,490,2940,490,2880,490C2820,490,2760,490,2700,490C2640,490,2580,490,2520,490C2460,490,2400,490,2340,490C2280,490,2220,490,2160,490C2100,490,2040,490,1980,490C1920,490,1860,490,1800,490C1740,490,1680,490,1620,490C1560,490,1500,490,1440,490C1380,490,1320,490,1260,490C1200,490,1140,490,1080,490C1020,490,960,490,900,490C840,490,780,490,720,490C660,490,600,490,540,490C480,490,420,490,360,490C300,490,240,490,180,490C120,490,60,490,30,490L0,490Z"/></svg>