<?xml version="1.0" standalone="no"?>
<!DOCTYPE svg PUBLIC "-//W3C//DTD SVG 20010904//EN"
 "http://www.w3.org/TR/2001/REC-SVG-20010904/DTD/svg10.dtd">
<svg version="1.0" xmlns="http://www.w3.org/2000/svg"
 width="830.000000pt" height="830.000000pt" viewBox="0 0 830.000000 830.000000"
 preserveAspectRatio="xMidYMid meet">
<metadata>
Created by potrace 1.11, written by Peter Selinger 2001-2013
</metadata>
<g transform="translate(0.000000,830.000000) scale(0.100000,-0.100000)"
fill="#000000" stroke="none">
<path d="M1459 6996 c-2 -2 -71 -7 -154 -10 -82 -4 -166 -9 -185 -11 -19 -1
-69 -6 -110 -9 -73 -6 -107 -10 -207 -22 -45 -5 -73 -8 -150 -19 -150 -22
-254 -44 -285 -63 -15 -9 -35 -32 -45 -52 -16 -33 -17 -199 -18 -2730 -1
-2227 1 -2702 12 -2736 15 -45 55 -80 100 -88 41 -8 723 -7 757 0 20 5 27 4
22 -5 -11 -17 0 -13 15 6 12 15 12 16 -1 8 -8 -4 -6 1 5 12 11 11 24 18 29 15
5 -3 6 0 2 6 -3 6 -2 13 4 17 5 3 10 15 10 26 0 11 3 18 8 16 4 -3 6 503 4
1124 -2 902 0 1129 10 1130 7 0 25 2 41 3 25 2 32 -5 27 -29 -1 -5 2 -6 7 -2
4 5 8 13 8 19 0 17 30 18 59 2 15 -7 24 -9 21 -4 -8 12 -18 11 158 13 81 1
147 -1 147 -4 0 -3 20 -3 45 1 25 4 48 3 51 -1 2 -5 11 -6 19 -2 9 3 23 -1 32
-8 12 -10 15 -10 9 -1 -4 7 -1 12 8 12 9 0 16 -6 16 -12 0 -9 4 -8 10 2 5 8
10 10 10 5 0 -6 12 -10 28 -10 15 1 31 -1 36 -4 5 -2 21 -5 35 -6 42 -4 96
-19 151 -42 68 -29 79 -36 73 -46 -3 -6 -1 -7 5 -4 15 10 43 -3 35 -16 -3 -6
-1 -7 6 -3 26 17 181 -136 244 -239 88 -148 183 -423 231 -675 2 -14 18 -82
35 -153 17 -70 33 -141 36 -159 3 -17 8 -34 10 -38 2 -3 6 -17 9 -31 17 -92
131 -515 172 -637 68 -204 112 -274 179 -286 19 -4 172 -7 340 -7 235 0 304
-3 298 -12 -5 -9 -4 -9 8 0 8 6 47 13 87 14 39 2 72 8 72 13 0 5 3 6 7 3 3 -4
13 2 20 13 8 11 19 18 24 14 5 -3 9 -2 8 3 -1 4 0 10 1 13 20 53 14 111 -21
186 -17 38 -32 79 -33 91 0 13 -4 23 -7 23 -11 0 -41 101 -35 116 3 7 -3 18
-12 23 -9 5 -16 12 -14 15 1 3 2 7 1 9 -3 11 -11 46 -14 64 -2 12 -7 28 -11
35 -9 14 -14 32 -19 63 -1 11 -7 33 -14 48 -6 15 -13 42 -16 59 -3 17 -8 34
-10 38 -2 3 -6 17 -9 31 -3 13 -12 49 -20 81 -8 31 -18 67 -20 80 -7 31 -46
188 -53 212 -4 13 -1 17 8 12 8 -4 5 0 -5 8 -11 9 -17 16 -13 16 4 0 3 8 -2
18 -7 13 -6 23 2 32 8 8 8 11 1 7 -10 -6 -58 166 -79 286 -3 15 -9 37 -14 49
-4 13 -7 33 -6 46 1 12 -1 22 -5 22 -4 0 -13 28 -20 63 -7 34 -16 67 -20 72
-3 6 -12 30 -19 55 -6 25 -16 54 -21 65 -7 18 -20 51 -25 65 -27 79 -101 227
-146 292 -11 14 -19 31 -19 36 0 6 -3 12 -7 14 -5 2 -27 28 -50 58 -23 30 -53
68 -67 84 -14 16 -23 33 -20 38 3 4 1 7 -4 6 -5 -2 -31 17 -58 41 -27 25 -71
60 -98 80 -48 34 -48 35 -25 45 13 6 26 13 29 16 13 13 50 29 62 26 7 -1 10
-1 5 1 -14 8 4 22 20 16 11 -4 14 -3 9 6 -5 8 -1 14 13 18 12 3 21 10 21 15 0
6 7 5 16 -2 8 -8 14 -9 13 -4 -3 18 1 37 8 31 3 -4 12 2 20 13 15 21 39 29 27
8 -5 -7 -3 -8 5 -4 7 5 10 10 7 13 -7 7 33 43 46 43 5 0 6 5 3 10 -3 6 -1 10
5 10 6 0 18 7 27 16 9 8 23 12 32 9 12 -5 13 -3 4 6 -9 9 -9 15 2 25 19 19 25
17 20 -6 -2 -11 0 -22 4 -25 5 -2 7 9 6 26 -2 19 3 33 11 36 8 3 14 9 14 14 0
13 68 80 73 72 2 -5 2 -2 1 5 -5 19 36 61 55 55 12 -4 13 -3 3 5 -11 7 -6 21
24 66 21 31 42 56 47 56 4 0 5 5 2 10 -3 6 -1 10 5 10 6 0 9 4 6 9 -3 5 1 14
9 21 8 7 15 18 15 24 0 6 13 36 28 66 26 50 79 194 87 238 2 9 4 19 5 22 1 3
2 8 1 13 0 4 2 7 6 7 5 0 9 19 11 42 1 22 6 46 10 52 3 6 5 19 3 30 -1 10 1
16 6 13 4 -3 8 19 7 49 -1 30 2 57 6 59 4 2 6 23 4 45 -2 28 1 38 8 34 7 -5 8
-2 3 6 -5 8 -10 64 -11 125 -1 60 -3 110 -4 110 -3 0 -12 85 -14 122 0 18 -4
33 -7 33 -5 0 -19 63 -18 80 0 3 -4 17 -10 33 -6 15 -13 38 -15 52 -15 83
-124 313 -193 408 -21 29 -41 54 -45 55 -5 2 -8 9 -8 15 0 7 -9 18 -20 25 -11
7 -20 16 -20 21 0 15 -106 116 -195 186 -190 149 -386 243 -649 310 -72 18
-148 36 -168 39 -21 3 -57 10 -80 15 -24 5 -68 12 -98 15 -30 4 -77 9 -105 13
-27 3 -68 8 -90 10 -52 5 -721 13 -726 9z m320 -810 c9 -6 12 -5 8 0 -7 11 53
12 70 1 6 -4 14 -3 18 2 4 7 15 7 30 1 17 -6 25 -6 25 1 0 6 4 8 9 5 4 -3 32
-6 60 -7 29 -1 54 -5 56 -9 2 -3 18 -5 34 -4 18 1 31 -3 31 -9 0 -7 5 -5 10 3
8 12 10 12 10 -5 0 -14 3 -16 9 -7 4 7 19 11 32 9 89 -15 109 -21 109 -29 0
-5 4 -7 10 -3 5 3 33 -2 62 -12 29 -10 56 -16 61 -15 4 1 7 -2 7 -8 0 -5 7
-10 15 -10 21 0 105 -42 105 -53 0 -4 4 -6 9 -3 5 3 20 -4 35 -15 14 -11 26
-17 26 -12 0 4 4 3 8 -2 4 -6 22 -21 40 -34 18 -12 30 -27 26 -32 -3 -5 -2 -9
3 -8 21 4 32 -3 38 -21 3 -11 11 -20 17 -20 23 0 113 -133 102 -151 -4 -7 -3
-9 3 -6 20 12 77 -146 92 -253 15 -100 7 -314 -14 -395 -49 -193 -170 -365
-333 -475 -115 -78 -270 -143 -402 -169 -30 -5 -71 -13 -90 -17 -19 -4 -216
-9 -437 -11 l-403 -5 0 841 c0 662 3 841 13 842 9 0 9 2 0 6 -14 5 -18 49 -5
57 22 13 126 24 311 32 58 2 106 5 107 7 6 6 71 0 83 -7z"/>
<path d="M1516 6158 c3 -5 10 -6 15 -3 13 9 11 12 -6 12 -8 0 -12 -4 -9 -9z"/>
<path d="M1556 6162 c-2 -4 -1 -14 4 -22 7 -11 9 -9 7 8 -1 24 -3 26 -11 14z"/>
<path d="M2056 6147 c3 -10 9 -15 12 -12 3 3 0 11 -7 18 -10 9 -11 8 -5 -6z"/>
<path d="M1830 6140 c0 -5 5 -10 11 -10 5 0 7 5 4 10 -3 6 -8 10 -11 10 -2 0
-4 -4 -4 -10z"/>
<path d="M2175 6120 c3 -5 8 -10 11 -10 2 0 4 5 4 10 0 6 -5 10 -11 10 -5 0
-7 -4 -4 -10z"/>
<path d="M2210 6119 c0 -5 5 -7 10 -4 6 3 10 8 10 11 0 2 -4 4 -10 4 -5 0 -10
-5 -10 -11z"/>
<path d="M1595 6109 c-4 -6 -5 -12 -2 -15 2 -3 7 2 10 11 7 17 1 20 -8 4z"/>
<path d="M1350 6106 c0 -2 7 -7 16 -10 8 -3 12 -2 9 4 -6 10 -25 14 -25 6z"/>
<path d="M1715 6101 c-3 -5 -2 -12 3 -15 5 -3 9 1 9 9 0 17 -3 19 -12 6z"/>
<path d="M1755 6101 c-3 -5 -2 -12 3 -15 5 -3 9 1 9 9 0 17 -3 19 -12 6z"/>
<path d="M2330 6099 c0 -5 5 -7 10 -4 6 3 10 8 10 11 0 2 -4 4 -10 4 -5 0 -10
-5 -10 -11z"/>
<path d="M1796 6087 c3 -10 9 -15 12 -12 3 3 0 11 -7 18 -10 9 -11 8 -5 -6z"/>
<path d="M1530 6080 c0 -5 5 -10 11 -10 5 0 7 5 4 10 -3 6 -8 10 -11 10 -2 0
-4 -4 -4 -10z"/>
<path d="M1653 6075 c0 -8 4 -12 9 -9 5 3 6 10 3 15 -9 13 -12 11 -12 -6z"/>
<path d="M2080 6060 c-9 -6 -10 -10 -3 -10 6 0 15 5 18 10 8 12 4 12 -15 0z"/>
<path d="M2459 6068 c-5 -18 -6 -38 -1 -34 7 8 12 36 6 36 -2 0 -4 -1 -5 -2z"/>
<path d="M1337 6015 c-4 -8 -3 -16 1 -19 4 -3 9 4 9 15 2 23 -3 25 -10 4z"/>
<path d="M1290 5999 c0 -5 5 -7 10 -4 6 3 10 8 10 11 0 2 -4 4 -10 4 -5 0 -10
-5 -10 -11z"/>
<path d="M1433 5945 c0 -8 4 -12 9 -9 5 3 6 10 3 15 -9 13 -12 11 -12 -6z"/>
<path d="M1294 5896 c1 -8 5 -18 8 -22 4 -3 5 1 4 10 -1 8 -5 18 -8 22 -4 3
-5 -1 -4 -10z"/>
<path d="M1295 4860 c3 -5 8 -10 11 -10 2 0 4 5 4 10 0 6 -5 10 -11 10 -5 0
-7 -4 -4 -10z"/>
<path d="M1295 4820 c-3 -5 -1 -10 4 -10 6 0 11 5 11 10 0 6 -2 10 -4 10 -3 0
-8 -4 -11 -10z"/>
<path d="M1315 4471 c-3 -5 -2 -12 3 -15 5 -3 9 1 9 9 0 17 -3 19 -12 6z"/>
<path d="M6199 5516 c-2 -2 -33 -6 -69 -10 -36 -3 -75 -8 -86 -10 -12 -2 -39
-7 -59 -10 -81 -13 -309 -77 -340 -95 -5 -3 -15 -6 -21 -7 -29 -5 -213 -102
-297 -156 -150 -99 -268 -200 -380 -327 -53 -60 -157 -199 -157 -210 0 -6 -4
-11 -9 -11 -5 0 -16 -15 -25 -32 -9 -18 -25 -46 -36 -63 -156 -251 -276 -642
-318 -1035 -10 -90 -9 -459 1 -550 18 -164 65 -384 113 -535 29 -90 124 -308
136 -313 4 -2 8 -9 8 -16 0 -12 139 -226 162 -250 7 -7 24 -28 38 -46 28 -38
175 -190 184 -190 10 0 71 -64 68 -73 -1 -5 2 -6 8 -2 14 9 42 -14 33 -28 -3
-6 -1 -7 6 -3 6 4 28 -6 50 -23 21 -17 44 -31 50 -31 6 0 11 -3 11 -8 0 -4 9
-12 19 -17 81 -42 110 -59 106 -65 -3 -4 5 -7 18 -6 12 0 21 -4 20 -9 -1 -6
10 -12 24 -13 31 -2 45 -11 38 -22 -3 -4 4 -6 15 -3 12 3 20 0 20 -8 0 -7 3
-10 6 -6 9 8 65 -14 59 -23 -3 -5 0 -12 6 -16 8 -5 9 -3 4 6 -6 10 -3 12 11 7
63 -20 165 -50 199 -59 121 -30 213 -49 232 -49 17 1 21 -4 17 -17 -5 -16 -5
-16 6 1 6 9 14 15 18 13 7 -4 117 -18 150 -19 6 0 12 -4 12 -9 0 -5 8 -4 19 1
10 6 21 8 24 5 5 -5 269 -5 397 1 44 2 80 -1 88 -8 10 -8 12 -7 10 3 -2 8 11
14 37 16 22 2 46 6 53 9 6 2 12 -3 12 -13 0 -15 2 -15 10 -2 5 8 24 15 42 15
18 0 38 3 43 7 6 3 35 9 65 12 30 3 69 10 85 15 24 7 35 4 55 -13 l25 -21 -20
24 c-15 17 -16 22 -5 20 8 -1 22 0 30 4 38 14 120 28 131 21 8 -4 9 -3 5 4 -5
8 2 13 18 13 48 3 51 4 57 13 4 5 23 9 42 10 19 0 34 3 31 5 -2 2 41 19 95 37
54 18 107 36 117 41 11 5 33 17 51 26 23 11 33 12 37 4 2 -7 5 -4 5 6 1 9 5
17 10 17 5 0 19 16 31 35 17 27 21 47 18 94 -2 32 -6 57 -10 54 -5 -2 -8 5 -8
16 0 10 -7 47 -16 80 -8 34 -17 69 -19 78 -2 10 -13 56 -25 103 -28 114 -27
109 -38 158 -14 58 -37 91 -77 108 -50 20 -63 18 -182 -27 -60 -22 -115 -42
-123 -44 -8 -3 -52 -15 -97 -29 -95 -28 -290 -63 -419 -74 -159 -13 -500 -7
-594 11 -127 24 -128 24 -204 53 -228 86 -392 209 -504 379 -15 22 -33 46 -39
53 -7 7 -16 24 -19 38 -3 13 -10 24 -14 24 -5 0 -11 13 -15 30 -4 16 -11 30
-16 30 -5 0 -8 3 -7 8 1 8 -8 34 -23 67 -6 12 -11 27 -13 35 -2 8 -5 22 -9 30
-6 18 -25 95 -31 130 -3 14 -7 36 -10 50 -3 14 -9 53 -12 88 l-7 63 49 -3 c29
-2 49 -8 49 -15 0 -6 3 -15 7 -19 4 -3 6 3 3 15 -4 20 0 21 87 21 73 0 96 -4
112 -17 17 -15 19 -15 8 -1 -12 15 -5 16 80 16 53 0 99 -5 107 -12 11 -8 13
-8 7 2 -10 16 16 16 33 0 8 -7 11 -8 8 -2 -9 16 92 18 111 2 12 -10 14 -10 8
0 -5 9 2 12 26 12 19 0 40 -6 47 -12 11 -10 13 -10 7 0 -11 18 14 15 38 -5 17
-15 18 -15 8 -2 -12 16 -3 17 103 17 95 -1 118 -4 126 -17 9 -14 10 -14 5 2
-6 20 14 23 33 5 11 -10 13 -10 7 0 -5 8 2 12 26 12 19 0 40 -6 47 -12 11 -10
13 -10 7 0 -5 8 2 12 26 12 19 0 40 -6 47 -12 11 -10 13 -10 7 0 -11 18 14 15
38 -6 17 -14 19 -14 8 0 -12 15 -5 16 80 16 53 0 99 -5 107 -12 11 -8 13 -8 7
2 -4 7 -2 12 6 12 8 0 20 -6 27 -12 11 -10 13 -10 7 0 -5 9 6 12 46 12 30 0
60 -6 67 -12 11 -10 13 -10 7 0 -5 8 2 12 26 12 19 0 40 -6 47 -12 11 -10 13
-10 7 0 -11 18 14 15 38 -6 17 -14 18 -14 8 -1 -12 16 -3 17 103 17 95 -1 118
-4 126 -17 9 -14 10 -14 5 2 -6 20 14 23 33 5 11 -10 13 -10 7 0 -5 8 2 12 26
12 19 0 40 -6 47 -12 11 -10 13 -10 7 0 -5 8 2 12 26 12 19 0 40 -6 47 -12 11
-10 13 -10 7 0 -11 18 14 15 38 -5 17 -15 19 -15 8 -1 -12 15 -5 16 80 16 53
0 99 -5 107 -12 11 -8 13 -8 7 2 -11 18 14 15 38 -5 20 -17 20 -17 7 0 -14 17
-11 18 60 17 41 -1 85 1 99 5 14 4 31 7 38 7 6 1 12 4 12 7 0 4 10 17 23 31
13 14 25 30 28 35 2 6 8 9 13 7 5 -2 4 3 -2 11 -7 8 -9 17 -5 20 3 4 7 24 9
45 8 126 18 321 17 342 0 47 -16 222 -29 312 -3 24 -7 52 -8 63 -1 11 -5 25
-9 31 -4 7 -7 23 -6 35 1 24 -23 121 -57 236 -10 32 -18 60 -19 63 -12 64
-141 355 -172 388 -7 7 -13 18 -13 24 0 6 -17 34 -38 62 -20 28 -49 68 -62 88
-14 21 -28 38 -32 38 -5 0 -8 4 -8 10 0 5 -10 20 -22 33 -13 12 -34 36 -49 52
-89 104 -290 253 -436 325 -124 60 -332 124 -470 145 -23 3 -57 8 -75 11 -39
7 -393 15 -399 10z m-5 -790 c-3 -6 0 -4 8 4 20 23 77 25 94 3 12 -16 13 -16
8 -1 -5 16 1 17 55 15 34 -1 61 -5 61 -8 0 -3 11 -4 25 -1 14 2 25 0 25 -5 0
-5 14 -8 30 -5 17 2 30 0 30 -4 0 -5 13 -10 30 -11 46 -3 134 -44 118 -55 -9
-6 -7 -8 8 -3 13 3 34 -4 58 -20 20 -14 41 -25 46 -25 6 0 15 -9 22 -20 7 -11
16 -20 19 -20 24 0 173 -185 163 -201 -3 -5 -1 -9 4 -9 10 0 57 -92 77 -150 1
-3 4 -12 8 -20 30 -80 40 -124 62 -293 l7 -47 -896 0 c-844 0 -895 1 -891 18
10 52 27 102 35 102 5 0 6 7 3 17 -5 12 -3 14 8 8 11 -6 11 -5 2 5 -15 16 4
61 22 54 7 -3 16 -1 20 5 3 6 0 9 -8 5 -8 -3 -18 -1 -22 5 -3 6 -2 11 3 11 5
0 9 6 9 13 0 19 34 87 44 87 5 0 8 3 7 8 -4 12 24 72 34 72 5 0 7 4 3 9 -3 5
-1 12 4 16 6 3 20 26 33 51 12 25 32 52 43 60 11 8 19 18 18 22 -1 4 5 6 12 6
8 -1 12 3 9 8 -8 13 26 49 39 41 5 -3 7 -2 4 3 -3 6 -1 16 4 24 8 13 10 13 19
0 10 -13 10 -13 8 1 -3 18 66 92 76 82 3 -3 6 -1 6 5 0 10 38 28 53 24 4 -1 6
4 5 11 -2 7 6 12 19 11 14 -1 20 3 16 12 -3 8 -1 14 5 14 6 0 13 -6 15 -12 3
-8 6 -5 6 6 1 12 6 16 17 12 8 -3 13 -2 10 2 -4 8 45 30 69 32 6 1 19 7 30 14
11 7 36 13 57 12 20 -1 34 2 32 6 -5 8 36 16 53 10 7 -2 10 -9 7 -16z"/>
<path d="M6150 4726 c0 -2 7 -7 16 -10 8 -3 12 -2 9 4 -6 10 -25 14 -25 6z"/>
<path d="M6073 4691 c0 -11 5 -18 9 -15 4 3 5 11 1 19 -7 21 -12 19 -10 -4z"/>
<path d="M6204 4702 c4 -3 14 -7 22 -8 9 -1 13 0 10 4 -4 3 -14 7 -22 8 -9 1
-13 0 -10 -4z"/>
<path d="M6253 4691 c0 -11 5 -18 9 -15 4 3 5 11 1 19 -7 21 -12 19 -10 -4z"/>
<path d="M6276 4698 c3 -5 10 -6 15 -3 13 9 11 12 -6 12 -8 0 -12 -4 -9 -9z"/>
<path d="M6420 4706 c0 -2 8 -10 18 -17 15 -13 16 -12 3 4 -13 16 -21 21 -21
13z"/>
<path d="M5994 4676 c1 -8 5 -18 8 -22 4 -3 5 1 4 10 -1 8 -5 18 -8 22 -4 3
-5 -1 -4 -10z"/>
<path d="M6026 4682 c-3 -5 1 -9 9 -9 8 0 15 4 15 9 0 4 -4 8 -9 8 -6 0 -12
-4 -15 -8z"/>
<path d="M6160 4680 c-9 -6 -10 -10 -3 -10 6 0 15 5 18 10 8 12 4 12 -15 0z"/>
<path d="M6375 4680 c3 -5 8 -10 11 -10 2 0 4 5 4 10 0 6 -5 10 -11 10 -5 0
-7 -4 -4 -10z"/>
<path d="M6255 4651 c-3 -5 -2 -12 3 -15 5 -3 9 1 9 9 0 17 -3 19 -12 6z"/>
<path d="M6493 4629 c-2 -23 3 -25 10 -4 4 8 3 16 -1 19 -4 3 -9 -4 -9 -15z"/>
<path d="M6619 4648 c-5 -18 -6 -38 -1 -34 7 8 12 36 6 36 -2 0 -4 -1 -5 -2z"/>
<path d="M5920 4626 c0 -2 8 -10 18 -17 15 -13 16 -12 3 4 -13 16 -21 21 -21
13z"/>
<path d="M6015 4620 c3 -5 8 -10 11 -10 2 0 4 5 4 10 0 6 -5 10 -11 10 -5 0
-7 -4 -4 -10z"/>
<path d="M6686 4622 c-3 -5 1 -9 9 -9 8 0 12 4 9 9 -3 4 -7 8 -9 8 -2 0 -6 -4
-9 -8z"/>
<path d="M5883 4598 c-11 -19 -12 -37 -3 -43 5 -3 7 3 5 12 -1 10 2 24 8 31 5
6 7 12 4 12 -3 0 -9 -6 -14 -12z"/>
<path d="M5819 4573 c-13 -16 -12 -17 4 -4 9 7 17 15 17 17 0 8 -8 3 -21 -13z"/>
<path d="M5956 4547 c3 -10 9 -15 12 -12 3 3 0 11 -7 18 -10 9 -11 8 -5 -6z"/>
<path d="M5794 4542 c4 -3 14 -7 22 -8 9 -1 13 0 10 4 -4 3 -14 7 -22 8 -9 1
-13 0 -10 -4z"/>
<path d="M5856 4533 c-6 -14 -5 -15 5 -6 7 7 10 15 7 18 -3 3 -9 -2 -12 -12z"/>
<path d="M5736 4493 c-6 -14 -5 -15 5 -6 7 7 10 15 7 18 -3 3 -9 -2 -12 -12z"/>
<path d="M5895 4481 c-3 -5 -2 -12 3 -15 5 -3 9 1 9 9 0 17 -3 19 -12 6z"/>
<path d="M5953 4465 c0 -8 4 -12 9 -9 5 3 6 10 3 15 -9 13 -12 11 -12 -6z"/>
<path d="M5713 4435 c0 -8 4 -12 9 -9 5 3 6 10 3 15 -9 13 -12 11 -12 -6z"/>
<path d="M5632 4400 c2 -9 -3 -14 -12 -12 -8 2 -11 0 -7 -4 13 -14 35 -12 33
2 -1 7 -6 17 -10 21 -4 4 -6 1 -4 -7z"/>
<path d="M5666 4398 c3 -5 10 -6 15 -3 13 9 11 12 -6 12 -8 0 -12 -4 -9 -9z"/>
<path d="M5870 4380 c0 -5 5 -10 11 -10 5 0 7 5 4 10 -3 6 -8 10 -11 10 -2 0
-4 -4 -4 -10z"/>
<path d="M5610 4357 c0 -2 6 -10 14 -16 11 -9 16 -9 22 1 4 7 4 10 -1 6 -4 -4
-14 -3 -22 3 -7 6 -13 9 -13 6z"/>
<path d="M5571 4307 c-8 -10 -7 -14 2 -14 8 0 14 6 14 14 0 7 -1 13 -2 13 -2
0 -8 -6 -14 -13z"/>
<path d="M5646 4282 c-3 -5 1 -9 9 -9 8 0 12 4 9 9 -3 4 -7 8 -9 8 -2 0 -6 -4
-9 -8z"/>
<path d="M5556 4267 c3 -10 9 -15 12 -12 3 3 0 11 -7 18 -10 9 -11 8 -5 -6z"/>
<path d="M5669 4223 c-13 -16 -12 -17 4 -4 9 7 17 15 17 17 0 8 -8 3 -21 -13z"/>
<path d="M5566 4218 c3 -5 10 -6 15 -3 13 9 11 12 -6 12 -8 0 -12 -4 -9 -9z"/>
<path d="M5595 4199 c-3 -4 2 -6 10 -5 21 3 28 13 10 13 -9 0 -18 -4 -20 -8z"/>
<path d="M5550 4156 c0 -2 8 -10 18 -17 15 -13 16 -12 3 4 -13 16 -21 21 -21
13z"/>
<path d="M5520 4140 c-9 -6 -10 -10 -3 -10 6 0 15 5 18 10 8 12 4 12 -15 0z"/>
<path d="M5456 4113 c-4 -9 -3 -20 1 -24 4 -4 9 3 9 17 2 28 -1 31 -10 7z"/>
<path d="M5465 4020 c-3 -6 1 -7 9 -4 18 7 21 14 7 14 -6 0 -13 -4 -16 -10z"/>
<path d="M5510 4019 c0 -5 5 -7 10 -4 6 3 10 8 10 11 0 2 -4 4 -10 4 -5 0 -10
-5 -10 -11z"/>
<path d="M5510 3901 c0 -6 4 -13 10 -16 6 -3 7 1 4 9 -7 18 -14 21 -14 7z"/>
<path d="M5410 3879 c0 -5 5 -7 10 -4 6 3 10 8 10 11 0 2 -4 4 -10 4 -5 0 -10
-5 -10 -11z"/>
<path d="M3949 5443 c-13 -16 -12 -17 4 -4 9 7 17 15 17 17 0 8 -8 3 -21 -13z"/>
<path d="M3936 5202 c-3 -5 1 -9 9 -9 8 0 12 4 9 9 -3 4 -7 8 -9 8 -2 0 -6 -4
-9 -8z"/>
<path d="M3933 5071 c0 -11 5 -18 9 -15 4 3 5 11 1 19 -7 21 -12 19 -10 -4z"/>
<path d="M3953 4825 c0 -8 4 -12 9 -9 5 3 6 10 3 15 -9 13 -12 11 -12 -6z"/>
<path d="M3860 4826 c0 -2 8 -10 18 -17 15 -13 16 -12 3 4 -13 16 -21 21 -21
13z"/>
<path d="M3834 4682 c4 -3 14 -7 22 -8 9 -1 13 0 10 4 -4 3 -14 7 -22 8 -9 1
-13 0 -10 -4z"/>
<path d="M3910 4621 c0 -6 4 -13 10 -16 6 -3 7 1 4 9 -7 18 -14 21 -14 7z"/>
<path d="M3753 4605 c0 -8 4 -12 9 -9 5 3 6 10 3 15 -9 13 -12 11 -12 -6z"/>
<path d="M3770 4520 c0 -5 5 -10 11 -10 5 0 7 5 4 10 -3 6 -8 10 -11 10 -2 0
-4 -4 -4 -10z"/>
<path d="M3835 4511 c-3 -5 -2 -12 3 -15 5 -3 9 1 9 9 0 17 -3 19 -12 6z"/>
<path d="M3686 4502 c-3 -5 1 -9 9 -9 8 0 12 4 9 9 -3 4 -7 8 -9 8 -2 0 -6 -4
-9 -8z"/>
<path d="M3666 4462 c-2 -4 4 -8 14 -8 10 0 16 4 14 8 -3 4 -9 8 -14 8 -5 0
-11 -4 -14 -8z"/>
<path d="M3736 4398 c3 -4 11 -5 19 -1 21 7 19 12 -4 10 -11 0 -18 -5 -15 -9z"/>
<path d="M3606 4378 c3 -5 10 -6 15 -3 13 9 11 12 -6 12 -8 0 -12 -4 -9 -9z"/>
<path d="M3546 4318 c3 -4 9 -8 15 -8 5 0 9 4 9 8 0 5 -7 9 -15 9 -8 0 -12 -4
-9 -9z"/>
<path d="M3530 4301 c0 -6 4 -13 10 -16 6 -3 7 1 4 9 -7 18 -14 21 -14 7z"/>
<path d="M3615 4280 c3 -5 8 -10 11 -10 2 0 4 5 4 10 0 6 -5 10 -11 10 -5 0
-7 -4 -4 -10z"/>
<path d="M3555 4229 c-4 -6 -5 -12 -2 -15 2 -3 7 2 10 11 7 17 1 20 -8 4z"/>
<path d="M3506 4218 c3 -4 9 -8 15 -8 5 0 9 4 9 8 0 5 -7 9 -15 9 -8 0 -12 -4
-9 -9z"/>
<path d="M3473 4187 c0 -8 6 -14 14 -14 9 0 10 4 2 14 -6 7 -12 13 -14 13 -1
0 -2 -6 -2 -13z"/>
<path d="M3390 4158 c0 -4 4 -8 9 -8 6 0 12 4 15 8 3 5 -1 9 -9 9 -8 0 -15 -4
-15 -9z"/>
<path d="M3474 4122 c4 -3 14 -7 22 -8 9 -1 13 0 10 4 -4 3 -14 7 -22 8 -9 1
-13 0 -10 -4z"/>
<path d="M3310 4078 c0 -4 4 -8 9 -8 6 0 12 4 15 8 3 5 -1 9 -9 9 -8 0 -15 -4
-15 -9z"/>
<path d="M3256 4027 c3 -10 9 -15 12 -12 3 3 0 11 -7 18 -10 9 -11 8 -5 -6z"/>
<path d="M3305 4020 c-3 -6 1 -7 9 -4 18 7 21 14 7 14 -6 0 -13 -4 -16 -10z"/>
<path d="M3094 3978 c-4 -7 -4 -10 1 -6 4 4 15 2 24 -5 14 -11 14 -10 2 6 -16
20 -18 21 -27 5z"/>
<path d="M3296 3962 c-2 -4 -1 -14 4 -22 7 -11 9 -9 7 8 -1 24 -3 26 -11 14z"/>
<path d="M3213 3895 c0 -8 4 -12 9 -9 5 3 6 10 3 15 -9 13 -12 11 -12 -6z"/>
<path d="M1355 3561 c-3 -5 -2 -12 3 -15 5 -3 9 1 9 9 0 17 -3 19 -12 6z"/>
<path d="M1613 3531 c0 -11 5 -18 9 -15 4 3 5 11 1 19 -7 21 -12 19 -10 -4z"/>
<path d="M1819 3548 c-5 -18 -6 -38 -1 -34 7 8 12 36 6 36 -2 0 -4 -1 -5 -2z"/>
<path d="M1853 3531 c0 -11 5 -18 9 -15 4 3 5 11 1 19 -7 21 -12 19 -10 -4z"/>
<path d="M1450 3520 c0 -5 5 -10 11 -10 5 0 7 5 4 10 -3 6 -8 10 -11 10 -2 0
-4 -4 -4 -10z"/>
<path d="M1575 3520 c-3 -5 -1 -10 4 -10 6 0 11 5 11 10 0 6 -2 10 -4 10 -3 0
-8 -4 -11 -10z"/>
<path d="M2035 3519 c-3 -4 2 -6 10 -5 21 3 28 13 10 13 -9 0 -18 -4 -20 -8z"/>
<path d="M2095 3520 c-3 -5 -1 -10 4 -10 6 0 11 5 11 10 0 6 -2 10 -4 10 -3 0
-8 -4 -11 -10z"/>
<path d="M1296 3507 c3 -10 9 -15 12 -12 3 3 0 11 -7 18 -10 9 -11 8 -5 -6z"/>
<path d="M2230 3500 c0 -5 5 -10 11 -10 5 0 7 5 4 10 -3 6 -8 10 -11 10 -2 0
-4 -4 -4 -10z"/>
<path d="M1355 3480 c3 -5 8 -10 11 -10 2 0 4 5 4 10 0 6 -5 10 -11 10 -5 0
-7 -4 -4 -10z"/>
<path d="M1750 3456 c0 -2 8 -10 18 -17 15 -13 16 -12 3 4 -13 16 -21 21 -21
13z"/>
<path d="M1335 3441 c-3 -5 -2 -12 3 -15 5 -3 9 1 9 9 0 17 -3 19 -12 6z"/>
<path d="M1296 3318 c3 -5 10 -6 15 -3 13 9 11 12 -6 12 -8 0 -12 -4 -9 -9z"/>
<path d="M8110 3220 c0 -5 5 -10 11 -10 5 0 7 5 4 10 -3 6 -8 10 -11 10 -2 0
-4 -4 -4 -10z"/>
<path d="M8156 3147 c3 -10 9 -15 12 -12 3 3 0 11 -7 18 -10 9 -11 8 -5 -6z"/>
<path d="M8075 3141 c-3 -5 -2 -12 3 -15 5 -3 9 1 9 9 0 17 -3 19 -12 6z"/>
<path d="M8036 3093 c-6 -14 -5 -15 5 -6 7 7 10 15 7 18 -3 3 -9 -2 -12 -12z"/>
<path d="M8093 3085 c0 -8 4 -12 9 -9 5 3 6 10 3 15 -9 13 -12 11 -12 -6z"/>
<path d="M5360 3066 c0 -2 8 -10 18 -17 15 -13 16 -12 3 4 -13 16 -21 21 -21
13z"/>
<path d="M5800 3040 c-9 -6 -10 -10 -3 -10 6 0 15 5 18 10 8 12 4 12 -15 0z"/>
<path d="M6280 3040 c-9 -6 -10 -10 -3 -10 6 0 15 5 18 10 8 12 4 12 -15 0z"/>
<path d="M6393 3035 c0 -8 4 -12 9 -9 5 3 6 10 3 15 -9 13 -12 11 -12 -6z"/>
<path d="M6760 3040 c-9 -6 -10 -10 -3 -10 6 0 15 5 18 10 8 12 4 12 -15 0z"/>
<path d="M7240 3040 c-9 -6 -10 -10 -3 -10 6 0 15 5 18 10 8 12 4 12 -15 0z"/>
<path d="M7353 3035 c0 -8 4 -12 9 -9 5 3 6 10 3 15 -9 13 -12 11 -12 -6z"/>
<path d="M7720 3040 c-9 -6 -10 -10 -3 -10 6 0 15 5 18 10 8 12 4 12 -15 0z"/>
<path d="M6353 3025 c0 -8 4 -12 9 -9 5 3 6 10 3 15 -9 13 -12 11 -12 -6z"/>
<path d="M7313 3025 c0 -8 4 -12 9 -9 5 3 6 10 3 15 -9 13 -12 11 -12 -6z"/>
<path d="M5353 3013 c0 -9 4 -10 14 -2 7 6 13 12 13 14 0 1 -6 2 -13 2 -8 0
-14 -6 -14 -14z"/>
<path d="M8010 3020 c0 -5 5 -10 11 -10 5 0 7 5 4 10 -3 6 -8 10 -11 10 -2 0
-4 -4 -4 -10z"/>
<path d="M5393 3005 c0 -8 4 -12 9 -9 5 3 6 10 3 15 -9 13 -12 11 -12 -6z"/>
<path d="M6253 3005 c0 -8 4 -12 9 -9 5 3 6 10 3 15 -9 13 -12 11 -12 -6z"/>
<path d="M7213 3005 c0 -8 4 -12 9 -9 5 3 6 10 3 15 -9 13 -12 11 -12 -6z"/>
<path d="M5730 2999 c0 -5 5 -7 10 -4 6 3 10 8 10 11 0 2 -4 4 -10 4 -5 0 -10
-5 -10 -11z"/>
<path d="M5830 3005 c0 -7 30 -13 34 -7 3 4 -4 9 -15 9 -10 1 -19 0 -19 -2z"/>
<path d="M6290 2999 c0 -5 5 -7 10 -4 6 3 10 8 10 11 0 2 -4 4 -10 4 -5 0 -10
-5 -10 -11z"/>
<path d="M6455 3000 c-3 -5 -1 -10 4 -10 6 0 11 5 11 10 0 6 -2 10 -4 10 -3 0
-8 -4 -11 -10z"/>
<path d="M6690 2999 c0 -5 5 -7 10 -4 6 3 10 8 10 11 0 2 -4 4 -10 4 -5 0 -10
-5 -10 -11z"/>
<path d="M6935 3000 c-3 -5 -1 -10 4 -10 6 0 11 5 11 10 0 6 -2 10 -4 10 -3 0
-8 -4 -11 -10z"/>
<path d="M7250 2999 c0 -5 5 -7 10 -4 6 3 10 8 10 11 0 2 -4 4 -10 4 -5 0 -10
-5 -10 -11z"/>
<path d="M7415 3000 c-3 -5 -1 -10 4 -10 6 0 11 5 11 10 0 6 -2 10 -4 10 -3 0
-8 -4 -11 -10z"/>
<path d="M7650 2999 c0 -5 5 -7 10 -4 6 3 10 8 10 11 0 2 -4 4 -10 4 -5 0 -10
-5 -10 -11z"/>
<path d="M7695 3000 c3 -5 8 -10 11 -10 2 0 4 5 4 10 0 6 -5 10 -11 10 -5 0
-7 -4 -4 -10z"/>
<path d="M7930 3000 c0 -5 5 -10 11 -10 5 0 7 5 4 10 -3 6 -8 10 -11 10 -2 0
-4 -4 -4 -10z"/>
<path d="M6355 2980 c-3 -5 -1 -10 4 -10 6 0 11 5 11 10 0 6 -2 10 -4 10 -3 0
-8 -4 -11 -10z"/>
<path d="M6755 2980 c-3 -5 -1 -10 4 -10 6 0 11 5 11 10 0 6 -2 10 -4 10 -3 0
-8 -4 -11 -10z"/>
<path d="M6816 2982 c-3 -5 1 -9 9 -9 8 0 12 4 9 9 -3 4 -7 8 -9 8 -2 0 -6 -4
-9 -8z"/>
<path d="M7315 2980 c-3 -5 -1 -10 4 -10 6 0 11 5 11 10 0 6 -2 10 -4 10 -3 0
-8 -4 -11 -10z"/>
<path d="M7033 2965 c0 -8 4 -12 9 -9 5 3 6 10 3 15 -9 13 -12 11 -12 -6z"/>
<path d="M5410 2960 c0 -5 5 -10 11 -10 5 0 7 5 4 10 -3 6 -8 10 -11 10 -2 0
-4 -4 -4 -10z"/>
<path d="M7835 2961 c-3 -5 -2 -12 3 -15 5 -3 9 1 9 9 0 17 -3 19 -12 6z"/>
<path d="M6556 2947 c3 -10 9 -15 12 -12 3 3 0 11 -7 18 -10 9 -11 8 -5 -6z"/>
<path d="M7516 2947 c3 -10 9 -15 12 -12 3 3 0 11 -7 18 -10 9 -11 8 -5 -6z"/>
<path d="M6830 2936 c7 -7 13 -7 20 0 6 6 3 10 -10 10 -13 0 -16 -4 -10 -10z"/>
<path d="M5416 2922 c-3 -5 1 -9 9 -9 8 0 12 4 9 9 -3 4 -7 8 -9 8 -2 0 -6 -4
-9 -8z"/>
<path d="M5425 2860 c-3 -6 1 -7 9 -4 18 7 21 14 7 14 -6 0 -13 -4 -16 -10z"/>
<path d="M1295 2620 c3 -5 8 -10 11 -10 2 0 4 5 4 10 0 6 -5 10 -11 10 -5 0
-7 -4 -4 -10z"/>
<path d="M1295 2580 c-3 -5 -1 -10 4 -10 6 0 11 5 11 10 0 6 -2 10 -4 10 -3 0
-8 -4 -11 -10z"/>
<path d="M1293 1835 c0 -8 4 -12 9 -9 5 3 6 10 3 15 -9 13 -12 11 -12 -6z"/>
<path d="M4020 1786 c0 -2 8 -10 18 -17 15 -13 16 -12 3 4 -13 16 -21 21 -21
13z"/>
<path d="M7859 1468 c-5 -18 -6 -38 -1 -34 7 8 12 36 6 36 -2 0 -4 -1 -5 -2z"/>
<path d="M7790 1356 c0 -2 8 -10 18 -17 15 -13 16 -12 3 4 -13 16 -21 21 -21
13z"/>
<path d="M1295 1340 c3 -5 8 -10 11 -10 2 0 4 5 4 10 0 6 -5 10 -11 10 -5 0
-7 -4 -4 -10z"/>
<path d="M7640 1345 c0 -2 6 -8 13 -14 10 -8 14 -7 14 2 0 8 -6 14 -14 14 -7
0 -13 -1 -13 -2z"/>
<path d="M7553 1307 c0 -8 6 -14 14 -14 9 0 10 4 2 14 -6 7 -12 13 -14 13 -1
0 -2 -6 -2 -13z"/>
<path d="M1296 1302 c-3 -5 1 -9 9 -9 8 0 12 4 9 9 -3 4 -7 8 -9 8 -2 0 -6 -4
-9 -8z"/>
<path d="M7633 1293 c0 -9 4 -10 14 -2 7 6 13 12 13 14 0 1 -6 2 -13 2 -8 0
-14 -6 -14 -14z"/>
<path d="M7500 1285 c0 -2 6 -8 13 -14 10 -8 14 -7 14 2 0 8 -6 14 -14 14 -7
0 -13 -1 -13 -2z"/>
<path d="M7479 1278 c-5 -9 -5 -48 -1 -43 6 6 11 45 5 45 -2 0 -4 -1 -4 -2z"/>
<path d="M7669 1263 c-13 -16 -12 -17 4 -4 16 13 21 21 13 21 -2 0 -10 -8 -17
-17z"/>
<path d="M1235 1261 c-3 -5 -2 -12 3 -15 5 -3 9 1 9 9 0 17 -3 19 -12 6z"/>
<path d="M5716 1242 c-3 -5 1 -9 9 -9 8 0 12 4 9 9 -3 4 -7 8 -9 8 -2 0 -6 -4
-9 -8z"/>
<path d="M7276 1235 c-3 -9 -11 -13 -17 -9 -8 5 -9 3 -4 -5 6 -10 11 -9 23 3
9 8 13 18 10 21 -3 3 -8 -1 -12 -10z"/>
<path d="M3455 1229 c-4 -6 -5 -12 -2 -15 2 -3 7 2 10 11 7 17 1 20 -8 4z"/>
<path d="M4069 1223 c-13 -16 -12 -17 4 -4 9 7 17 15 17 17 0 8 -8 3 -21 -13z"/>
<path d="M795 1220 c3 -5 8 -10 11 -10 2 0 4 5 4 10 0 6 -5 10 -11 10 -5 0 -7
-4 -4 -10z"/>
<path d="M915 1221 c-3 -5 -2 -12 3 -15 5 -3 9 1 9 9 0 17 -3 19 -12 6z"/>
<path d="M1035 1220 c3 -5 8 -10 11 -10 2 0 4 5 4 10 0 6 -5 10 -11 10 -5 0
-7 -4 -4 -10z"/>
<path d="M1250 1220 c0 -5 5 -10 11 -10 5 0 7 5 4 10 -3 6 -8 10 -11 10 -2 0
-4 -4 -4 -10z"/>
<path d="M3399 1213 c-13 -16 -12 -17 4 -4 16 13 21 21 13 21 -2 0 -10 -8 -17
-17z"/>
<path d="M3910 1225 c0 -7 30 -13 34 -7 3 4 -4 9 -15 9 -10 1 -19 0 -19 -2z"/>
<path d="M7376 1218 c3 -5 10 -6 15 -3 13 9 11 12 -6 12 -8 0 -12 -4 -9 -9z"/>
<path d="M7533 1211 c0 -11 5 -18 9 -15 4 3 5 11 1 19 -7 21 -12 19 -10 -4z"/>
<path d="M7627 1219 c7 -7 15 -10 18 -7 3 3 -2 9 -12 12 -14 6 -15 5 -6 -5z"/>
<path d="M1153 1205 c0 -8 4 -12 9 -9 5 3 6 10 3 15 -9 13 -12 11 -12 -6z"/>
<path d="M656 1202 c-3 -4 4 -9 15 -9 23 -2 25 3 4 10 -8 4 -16 3 -19 -1z"/>
<path d="M5819 1208 c-5 -18 -6 -38 -1 -34 7 8 12 36 6 36 -2 0 -4 -1 -5 -2z"/>
<path d="M7146 1198 c3 -4 9 -8 15 -8 5 0 9 4 9 8 0 5 -7 9 -15 9 -8 0 -12 -4
-9 -9z"/>
<path d="M7010 1196 c0 -2 8 -10 18 -17 15 -13 16 -12 3 4 -13 16 -21 21 -21
13z"/>
<path d="M3497 1175 c-4 -8 -3 -16 1 -19 4 -3 9 4 9 15 2 23 -3 25 -10 4z"/>
<path d="M3530 1185 c0 -5 5 -17 10 -25 5 -8 10 -10 10 -5 0 6 -5 17 -10 25
-5 8 -10 11 -10 5z"/>
<path d="M3657 1175 c-4 -8 -3 -16 1 -19 4 -3 9 4 9 15 2 23 -3 25 -10 4z"/>
<path d="M3693 1171 c0 -11 5 -18 9 -15 4 3 5 11 1 19 -7 21 -12 19 -10 -4z"/>
<path d="M4075 1180 c3 -5 8 -10 11 -10 2 0 4 5 4 10 0 6 -5 10 -11 10 -5 0
-7 -4 -4 -10z"/>
<path d="M7320 1180 c-9 -6 -10 -10 -3 -10 6 0 15 5 18 10 8 12 4 12 -15 0z"/>
<path d="M730 1160 c0 -5 5 -10 11 -10 5 0 7 5 4 10 -3 6 -8 10 -11 10 -2 0
-4 -4 -4 -10z"/>
<path d="M975 1160 c-3 -5 -1 -10 4 -10 6 0 11 5 11 10 0 6 -2 10 -4 10 -3 0
-8 -4 -11 -10z"/>
<path d="M1075 1159 c-3 -4 2 -6 10 -5 21 3 28 13 10 13 -9 0 -18 -4 -20 -8z"/>
<path d="M3616 1162 c-3 -5 1 -9 9 -9 8 0 12 4 9 9 -3 4 -7 8 -9 8 -2 0 -6 -4
-9 -8z"/>
<path d="M7215 1160 c3 -5 8 -10 11 -10 2 0 4 5 4 10 0 6 -5 10 -11 10 -5 0
-7 -4 -4 -10z"/>
<path d="M7250 1159 c0 -5 5 -7 10 -4 6 3 10 8 10 11 0 2 -4 4 -10 4 -5 0 -10
-5 -10 -11z"/>
<path d="M7416 1162 c-3 -5 1 -9 9 -9 8 0 12 4 9 9 -3 4 -7 8 -9 8 -2 0 -6 -4
-9 -8z"/>
<path d="M7149 1143 c-13 -16 -12 -17 4 -4 9 7 17 15 17 17 0 8 -8 3 -21 -13z"/>
<path d="M1035 1140 c3 -5 8 -10 11 -10 2 0 4 5 4 10 0 6 -5 10 -11 10 -5 0
-7 -4 -4 -10z"/>
<path d="M5830 1139 c0 -5 5 -7 10 -4 6 3 10 8 10 11 0 2 -4 4 -10 4 -5 0 -10
-5 -10 -11z"/>
<path d="M6230 1141 c0 -6 4 -13 10 -16 6 -3 7 1 4 9 -7 18 -14 21 -14 7z"/>
<path d="M6526 1138 c3 -5 10 -6 15 -3 13 9 11 12 -6 12 -8 0 -12 -4 -9 -9z"/>
<path d="M6559 1133 c-13 -16 -12 -17 4 -4 9 7 17 15 17 17 0 8 -8 3 -21 -13z"/>
<path d="M6750 1138 c0 -4 4 -8 9 -8 6 0 12 4 15 8 3 5 -1 9 -9 9 -8 0 -15 -4
-15 -9z"/>
<path d="M7275 1131 c-3 -5 -2 -12 3 -15 5 -3 9 1 9 9 0 17 -3 19 -12 6z"/>
<path d="M6075 1120 c3 -5 8 -10 11 -10 2 0 4 5 4 10 0 6 -5 10 -11 10 -5 0
-7 -4 -4 -10z"/>
<path d="M6130 1125 c0 -7 30 -13 34 -7 3 4 -4 9 -15 9 -10 1 -19 0 -19 -2z"/>
<path d="M7216 1122 c-3 -5 1 -9 9 -9 8 0 12 4 9 9 -3 4 -7 8 -9 8 -2 0 -6 -4
-9 -8z"/>
<path d="M6036 1093 c-6 -14 -5 -15 5 -6 7 7 10 15 7 18 -3 3 -9 -2 -12 -12z"/>
<path d="M6255 1100 c-3 -5 -1 -10 4 -10 6 0 11 5 11 10 0 6 -2 10 -4 10 -3 0
-8 -4 -11 -10z"/>
<path d="M6619 1108 c-5 -18 -6 -38 -1 -34 7 8 12 36 6 36 -2 0 -4 -1 -5 -2z"/>
<path d="M7615 1100 c3 -5 8 -10 11 -10 2 0 4 5 4 10 0 6 -5 10 -11 10 -5 0
-7 -4 -4 -10z"/>
<path d="M6813 1085 c0 -8 4 -12 9 -9 5 3 6 10 3 15 -9 13 -12 11 -12 -6z"/>
<path d="M6396 1082 c-3 -5 1 -9 9 -9 8 0 12 4 9 9 -3 4 -7 8 -9 8 -2 0 -6 -4
-9 -8z"/>
<path d="M6466 1082 c-3 -5 1 -9 9 -9 8 0 12 4 9 9 -3 4 -7 8 -9 8 -2 0 -6 -4
-9 -8z"/>
<path d="M6894 1082 c4 -3 14 -7 22 -8 9 -1 13 0 10 4 -4 3 -14 7 -22 8 -9 1
-13 0 -10 -4z"/>
<path d="M6755 1071 c-3 -5 -2 -12 3 -15 5 -3 9 1 9 9 0 17 -3 19 -12 6z"/>
<path d="M6495 1021 c-3 -5 -2 -12 3 -15 5 -3 9 1 9 9 0 17 -3 19 -12 6z"/>
</g>
</svg>
